<svg viewBox="0 0 16 16"><path d="M 16,2.6668444 C 16,1.2656 14.734933,0 13.333333,0 L 2.6666667,0 C 1.2650667,0 0,1.2656 0,2.6668444 L 0,13.333156 C 0,14.7344 1.2650667,16 2.6668444,16 L 8,16 8,9.9555556 l -1.9555556,0 0,-2.6666667 1.9555556,0 0,-1.0389333 C 8,4.4581333 9.3454222,2.8444444 11,2.8444444 l 2.155556,0 0,2.6666667 -2.155556,0 c -0.235911,0 -0.511111,0.2864 -0.511111,0.7153778 l 0,1.0624 2.666667,0 0,2.6666667 -2.666667,0 0,6.0444444 2.844444,0 C 14.734933,16 16,14.7344 16,13.333156 L 16,2.6668444 Z"/></svg>
