<?xml version="1.0" encoding="UTF-8" standalone="no"?>
<svg xmlns:dc="http://purl.org/dc/elements/1.1/" xmlns:cc="http://creativecommons.org/ns#" xmlns:rdf="http://www.w3.org/1999/02/22-rdf-syntax-ns#" xmlns:svg="http://www.w3.org/2000/svg" xmlns="http://www.w3.org/2000/svg" xmlns:sodipodi="http://sodipodi.sourceforge.net/DTD/sodipodi-0.dtd" xmlns:inkscape="http://www.inkscape.org/namespaces/inkscape" version="1.1" id="Capa_1" x="0px" y="0px" width="450" height="450" viewBox="0 0 450.00001 450.00001" xml:space="preserve" inkscape:version="0.91 r13725" sodipodi:docname="cursos.svg"><metadata id="metadata41"><rdf:RDF><cc:Work rdf:about=""><dc:format>image/svg+xml</dc:format><dc:type rdf:resource="http://purl.org/dc/dcmitype/StillImage" /><dc:title></dc:title></cc:Work></rdf:RDF></metadata><defs id="defs39">
</defs><sodipodi:namedview pagecolor="#ffffff" bordercolor="#666666" borderopacity="1" objecttolerance="10" gridtolerance="10" guidetolerance="10" inkscape:pageopacity="0" inkscape:pageshadow="2" inkscape:window-width="640" inkscape:window-height="480" id="namedview37" showgrid="false" inkscape:zoom="1" inkscape:cx="290.64327" inkscape:cy="178.66793" inkscape:current-layer="Capa_1" fit-margin-top="0" fit-margin-left="0" fit-margin-right="0" fit-margin-bottom="0" />
<path style="opacity:1;fill:#828282;fill-opacity:1;stroke:none;stroke-width:0.1;stroke-miterlimit:4;stroke-dasharray:none;stroke-opacity:1" d="M 225,0 A 225,225 0 0 0 0,225 225,225 0 0 0 225,450 225,225 0 0 0 450,225 225,225 0 0 0 225,0 Z m -103.95703,65 207.94922,0 c 17.17844,0.009 31.08593,13.92507 31.08593,31.10352 l 0,122.4414 c 0,17.16942 -13.9165,31.08594 -31.08593,31.08594 l -142.3086,0 0,-83.83594 17.96485,24.35938 c 2.9307,3.99478 8.45196,5.08712 12.69922,2.53515 l 21.43359,-12.85742 c 4.58092,-2.75937 6.06091,-8.66367 3.31055,-13.22656 -2.75035,-4.58092 -8.66369,-6.06992 -13.22657,-3.31055 l -13.91406,8.34766 -17.29492,-23.47656 c -1.81254,-2.45277 -4.7016,-3.92774 -7.76758,-3.92774 l -20.78125,0 -3.6289,4.84375 6.67578,37.79492 -9.03516,8.50782 -9.03516,-8.50782 6.65625,-37.79492 -3.62695,-4.84375 -20.80078,0 c -5.32035,0 -9.63477,4.32343 -9.63477,9.63477 l 0,62.68164 c 0,5.32036 4.31442,9.61719 9.63477,9.61719 1.13622,0 2.22171,-0.21277 3.22266,-0.56446 l 0,24.00586 -18.49219,0 c -17.16943,0 -31.08594,-13.91651 -31.08594,-31.08594 l 0,-122.4414 C 89.95703,78.91651 103.87354,65 121.04297,65 Z m 42.05859,22.65039 c -12.11058,0 -21.92773,7.32843 -21.92773,21.15234 0,13.82392 9.81715,28.90039 21.92773,28.90039 12.1196,0 21.94336,-15.07647 21.94336,-28.90039 0,-13.82391 -9.82376,-21.15234 -21.94336,-21.15234 z m -37.48047,180.82617 c 15.33886,0 27.77539,9.25038 27.77539,26.77149 0,17.52112 -12.43653,36.58007 -27.77539,36.58007 -15.33887,0 -27.77539,-19.08601 -27.77539,-36.58007 0,-17.49406 12.43652,-26.77149 27.77539,-26.77149 z m 99.38672,0 c 15.33887,0 27.77539,9.25038 27.77539,26.77149 0,17.52112 -12.43652,36.58007 -27.77539,36.58007 -15.33886,0 -27.75586,-19.08601 -27.75586,-36.58007 0,-17.49406 12.417,-26.77149 27.75586,-26.77149 z m 99.4043,0 c 15.33886,0 27.77539,9.27743 27.77539,26.77149 0,17.49406 -12.43653,36.58007 -27.77539,36.58007 -15.33887,0 -27.77344,-19.05895 -27.77344,-36.58007 0,-17.52111 12.43457,-26.77149 27.77344,-26.77149 z m -232.69531,71.66406 26.29687,0 15.18164,0 26.34766,0 c 3.26435,0 6.38457,1.2848 8.66601,3.61133 2.29948,2.32653 3.56617,5.49047 3.53907,8.71875 L 171.36133,385 l -91.86719,0 0,-32.6543 c 0,-6.76317 5.48654,-12.20508 12.22266,-12.20508 z m 99.38672,0 26.29687,0 15.19922,0 26.34766,0 c 3.25535,0 6.35798,1.2848 8.64843,3.61133 2.29046,2.32653 3.55759,5.49047 3.52149,8.71875 L 270.73047,385 l -91.84961,0 0.0176,-32.6543 c 0,-6.76317 5.46896,-12.20508 12.20508,-12.20508 z m 99.36914,0 26.29687,0 15.19922,0 26.34766,0 c 3.2373,0 6.35753,1.28526 8.66601,3.59376 2.29047,2.32652 3.56659,5.47197 3.52149,8.73632 L 370.11719,385 278.25,385 l 0.0176,-32.6543 c 0,-6.76317 5.47798,-12.20508 12.20508,-12.20508 z" id="path4148" inkscape:export-xdpi="90" inkscape:export-ydpi="90" inkscape:connector-curvature="0" />
</svg>