<?xml version="1.0" encoding="UTF-8" standalone="no"?>
<!-- Created with Inkscape (http://www.inkscape.org/) -->

<svg xmlns:dc="http://purl.org/dc/elements/1.1/" xmlns:cc="http://creativecommons.org/ns#" xmlns:rdf="http://www.w3.org/1999/02/22-rdf-syntax-ns#" xmlns:svg="http://www.w3.org/2000/svg" xmlns="http://www.w3.org/2000/svg" xmlns:sodipodi="http://sodipodi.sourceforge.net/DTD/sodipodi-0.dtd" xmlns:inkscape="http://www.inkscape.org/namespaces/inkscape" width="110" height="190" viewBox="0 0 110 190.00002" id="svg4204" version="1.1" inkscape:version="0.91 r13725" sodipodi:docname="logo-sem-fundo.svg" inkscape:export-filename="C:\Users\Audiovisual\Google Drive\projeto TRIUNFO CURSOS\Logo\logo-triunfo-2016.png" inkscape:export-xdpi="90" inkscape:export-ydpi="90">
  <defs id="defs4206" />
  <sodipodi:namedview id="base" pagecolor="#ffffff" bordercolor="#666666" borderopacity="1.0" inkscape:pageopacity="0.0" inkscape:pageshadow="2" inkscape:zoom="1" inkscape:cx="55" inkscape:cy="95" inkscape:document-units="px" inkscape:current-layer="layer1" showgrid="false" inkscape:window-width="1600" inkscape:window-height="837" inkscape:window-x="-8" inkscape:window-y="-8" inkscape:window-maximized="1" units="px" fit-margin-top="0" fit-margin-left="0" fit-margin-right="0" fit-margin-bottom="0" />
  <metadata id="metadata4209">
    <rdf:RDF>
      <cc:Work rdf:about="">
        <dc:format>image/svg+xml</dc:format>
        <dc:type rdf:resource="http://purl.org/dc/dcmitype/StillImage" />
        <dc:title></dc:title>
      </cc:Work>
    </rdf:RDF>
  </metadata>
  <g inkscape:label="Logo" inkscape:groupmode="layer" id="layer1" transform="translate(1313.6127,-19.307615)">
    <g id="g4213" transform="translate(4.117905,-0.90070327)">
      <path sodipodi:nodetypes="ccccccccccccccc" inkscape:connector-curvature="0" id="path4157" d="m -1253.4969,56.669317 c -6.5118,6.501841 -21.2114,23.392226 -27.0103,43.657843 0.014,-0.557802 -2.3922,-0.572899 -4.2383,-0.11719 -1.8462,0.45571 -3.846,1.57692 -3.8965,3.41602 -6.2194,16.83924 -14.883,31.78378 -24.9707,43.07422 9.3428,-7.0158 17.8425,-17.14432 24.6758,-29.4043 -1.35,32.92227 -6.1369,64.53805 -13.9316,92.01172 9.894,-20.41551 16.8685,-46.08216 20.1543,-74.16992 2.3071,21.64976 11.3007,41.37799 25.1171,55.0957 -36.5421,-60.15857 -20.2457,-104.990042 4.1002,-133.564093 z m -33.3502,27.136357 c -2.305,7.02e-4 -4.1734,2.308884 -4.1738,5.15625 -5e-4,2.848129 1.8682,5.1575 4.1738,5.158203 2.3064,6.62e-4 4.1763,-2.30911 4.1758,-5.158203 -4e-4,-2.848331 -1.87,-5.156912 -4.1758,-5.15625 z" style="opacity:1;fill:#0026a0;fill-opacity:1;stroke:none;stroke-width:0.47693479;stroke-miterlimit:4;stroke-dasharray:none;stroke-opacity:1" />
      <g transform="translate(-1319.95,-0.51659421)" style="display:inline;fill:#ffffff" id="g4179">
        <path sodipodi:nodetypes="czczcccsczcscsccc" inkscape:connector-curvature="0" id="path4181" d="m 78.130792,45.122456 c 0,0 0.999124,-1.910222 1.707458,-2.993555 0.708333,-1.083334 2.542542,-3.506445 2.542542,-3.506445 0,0 1.230131,1.952683 1.639432,2.798437 0.409301,0.845754 0.816374,2.276088 0.816374,2.276088 l 5.454505,-0.05936 -4.21967,3.117417 c 0,0 1.146447,2.559359 1.646447,5.809359 0.5,3.25 0.176776,8.309359 0.176776,8.309359 0,0 -1.279029,-5.501301 -2.5,-7.737436 -1.220971,-2.236136 -2.71967,-3.837088 -2.71967,-3.837088 0,0 -1.78033,0.867418 -2.78033,2.367418 -1,1.5 -2.323223,4.588388 -2.323223,4.588388 0,0 -0.234835,-3.559359 -0.234835,-5.059359 0,-1.5 0.484835,-3.190641 0.484835,-3.190641 l -6.414214,-1.603554 z" style="fill:#ffffff;fill-rule:evenodd;stroke:none;stroke-width:0.1;stroke-linecap:butt;stroke-linejoin:miter;stroke-miterlimit:4;stroke-dasharray:none;stroke-opacity:1" />
        <path style="fill:#ffffff;fill-rule:evenodd;stroke:none;stroke-width:0.07018579;stroke-linecap:butt;stroke-linejoin:miter;stroke-miterlimit:4;stroke-dasharray:none;stroke-opacity:1" d="m 95.740543,27.601035 -1.861685,-3.318912 -0.709485,4.029544 -3.906548,0.860239 4.256908,2.4556 c 0,0 -0.518949,2.017069 -0.276551,4.420271 0.242401,2.403204 1.335224,4.768798 1.335224,4.768798 0,0 0.09167,-3.299832 0.49446,-5.098456 0.402783,-1.798622 0.964212,-2.791944 0.964212,-2.791944 0,0 0.556371,0.4573 1.467619,1.362799 0.911247,0.905502 1.823482,2.670637 1.823482,2.670637 0,0 -0.424425,-2.580203 -0.686185,-3.651186 C 98.380234,32.237442 96.88643,29.78475 96.88643,29.78475 l 3.22322,-2.073769 z" id="path4183" inkscape:connector-curvature="0" sodipodi:nodetypes="cccccsczcscsccc" />
        <path sodipodi:nodetypes="cccccsczcscsccc" inkscape:connector-curvature="0" id="path4185" d="m 55.649406,36.310548 1.194185,-2.128929 0.455102,2.584766 2.50587,0.551804 -2.73061,1.575154 c 0,0 0.332882,1.293857 0.177395,2.8354 -0.155489,1.541545 -0.856485,3.058964 -0.856485,3.058964 0,0 -0.0588,-2.11669 -0.317173,-3.270424 -0.258367,-1.153733 -0.618498,-1.790904 -0.618498,-1.790904 0,0 -0.356886,0.293337 -0.94141,0.874173 -0.584522,0.580838 -1.169679,1.713091 -1.169679,1.713091 0,0 0.272249,-1.655082 0.440156,-2.342068 0.167907,-0.686986 1.126113,-2.260275 1.126113,-2.260275 l -2.067547,-1.330227 z" style="fill:#ffffff;fill-rule:evenodd;stroke:none;stroke-width:0.07018579;stroke-linecap:butt;stroke-linejoin:miter;stroke-miterlimit:4;stroke-dasharray:none;stroke-opacity:1" />
        <path style="fill:#ffffff;fill-rule:evenodd;stroke:none;stroke-width:0.07018579;stroke-linecap:butt;stroke-linejoin:miter;stroke-miterlimit:4;stroke-dasharray:none;stroke-opacity:1" d="m 106.24475,43.520795 -0.38324,-1.652919 -0.80608,1.636603 -1.77963,-0.11874 1.51626,1.58193 c 0,0 -0.47363,0.798818 -0.66945,1.857849 -0.19583,1.059031 -0.0229,2.207984 -0.0229,2.207984 0,0 0.45064,-1.401224 0.84728,-2.121013 0.39665,-0.71978 0.76084,-1.075028 0.76084,-1.075028 0,0 0.18119,0.265122 0.45839,0.766373 0.27722,0.501247 0.44772,1.37062 0.44772,1.37062 0,0 0.13997,-1.157498 0.16142,-1.64862 0.0215,-0.491121 -0.31227,-1.727346 -0.31227,-1.727346 l 1.6384,-0.485961 z" id="path4187" inkscape:connector-curvature="0" sodipodi:nodetypes="cccccsczcscsccc" />
        <path sodipodi:nodetypes="cccccsczcscsccc" inkscape:connector-curvature="0" id="path4189" d="m 70.580153,33.899166 -0.903508,-1.436206 -0.225547,1.810348 -1.720349,0.470724 1.950772,0.998015 c 0,0 -0.185851,0.909888 -0.02399,1.974637 0.161856,1.064753 0.701583,2.093681 0.701583,2.093681 0,0 -0.03319,-1.471531 0.105807,-2.281531 0.139006,-0.809995 0.366745,-1.264935 0.366745,-1.264935 0,0 0.258035,0.191148 0.684126,0.573951 0.42611,0.382793 0.871965,1.14836 0.871965,1.14836 0,0 -0.246887,-1.139491 -0.387486,-1.610546 -0.140552,-0.471071 -0.860832,-1.529773 -0.860832,-1.529773 l 1.388842,-0.995807 z" style="fill:#ffffff;fill-rule:evenodd;stroke:none;stroke-width:0.07018579;stroke-linecap:butt;stroke-linejoin:miter;stroke-miterlimit:4;stroke-dasharray:none;stroke-opacity:1" />
        <path style="fill:#ffffff;fill-rule:evenodd;stroke:none;stroke-width:0.07018579;stroke-linecap:butt;stroke-linejoin:miter;stroke-miterlimit:4;stroke-dasharray:none;stroke-opacity:1" d="m 51.235708,23.091701 -0.131069,-1.466085 1.106978,1.131034 1.434789,-0.579101 -0.822042,1.713948 c 0,0 0.606407,0.53037 1.05419,1.350343 0.447788,0.819975 0.615933,1.813786 0.615933,1.813786 0,0 -0.75035,-1.033133 -1.271928,-1.519178 -0.521581,-0.486036 -0.917834,-0.680377 -0.917834,-0.680377 0,0 -0.07766,0.267528 -0.170604,0.755651 -0.09296,0.488127 0.0016,1.25083 0.0016,1.25083 0,0 -0.42837,-0.916243 -0.578854,-1.31526 -0.150526,-0.399004 -0.209694,-1.508242 -0.209694,-1.508242 l -1.481893,0.04247 z" id="path4191" inkscape:connector-curvature="0" sodipodi:nodetypes="cccccsczcscsccc" />
        <path sodipodi:nodetypes="cccccsczcscsccc" inkscape:connector-curvature="0" id="path4193" d="m 50.564872,61.551975 -0.397886,-1.417135 -0.633403,1.450324 -1.546915,-0.03208 1.376911,1.310529 c 0,0 -0.378649,0.711088 -0.506204,1.636612 -0.127558,0.925528 0.06802,1.914306 0.06802,1.914306 0,0 0.334751,-1.232205 0.64983,-1.871743 0.315085,-0.639531 0.616547,-0.961874 0.616547,-0.961874 0,0 0.167568,0.222538 0.427729,0.645881 0.260178,0.42334 0.442514,1.16994 0.442514,1.16994 0,0 0.07523,-1.008634 0.07428,-1.435083 -9.12e-4,-0.426452 -0.339346,-1.484456 -0.339346,-1.484456 l 1.400463,-0.486327 z" style="fill:#ffffff;fill-rule:evenodd;stroke:none;stroke-width:0.07018579;stroke-linecap:butt;stroke-linejoin:miter;stroke-miterlimit:4;stroke-dasharray:none;stroke-opacity:1" />
        <path style="fill:#ffffff;fill-rule:evenodd;stroke:none;stroke-width:0.07018579;stroke-linecap:butt;stroke-linejoin:miter;stroke-miterlimit:4;stroke-dasharray:none;stroke-opacity:1" d="m 73.157851,77.416711 0.952061,-2.247664 0.737443,2.518791 2.551446,0.272021 -2.540195,1.866748 c 0,0 0.473572,1.249242 0.489077,2.798529 0.0155,1.54929 -0.513832,3.134774 -0.513832,3.134774 0,0 -0.291928,-2.097287 -0.675989,-3.21548 -0.384056,-1.118193 -0.812273,-1.711751 -0.812273,-1.711751 0,0 -0.322351,0.330914 -0.839238,0.972683 -0.516884,0.641771 -0.973575,1.831661 -0.973575,1.831661 0,0 0.08802,-1.675013 0.179123,-2.376328 0.0911,-0.701315 0.869916,-2.3707 0.869916,-2.3707 l -2.201663,-1.094044 z" id="path4195" inkscape:connector-curvature="0" sodipodi:nodetypes="cccccsczcscsccc" />
        <path sodipodi:nodetypes="cccccsczcscsccc" inkscape:connector-curvature="0" id="path4197" d="m 95.078161,88.73042 0.952061,-2.247664 0.737443,2.518791 2.551446,0.272021 -2.540195,1.866748 c 0,0 0.473572,1.249242 0.489077,2.798529 0.0155,1.54929 -0.513832,3.134774 -0.513832,3.134774 0,0 -0.291928,-2.097287 -0.675989,-3.21548 -0.384056,-1.118193 -0.812273,-1.711751 -0.812273,-1.711751 0,0 -0.322351,0.330914 -0.839238,0.972683 -0.516884,0.641771 -0.973575,1.831661 -0.973575,1.831661 0,0 0.08802,-1.675013 0.179123,-2.376328 0.0911,-0.701315 0.869916,-2.3707 0.869916,-2.3707 L 92.300462,89.10966 Z" style="fill:#ffffff;fill-rule:evenodd;stroke:none;stroke-width:0.07018579;stroke-linecap:butt;stroke-linejoin:miter;stroke-miterlimit:4;stroke-dasharray:none;stroke-opacity:1" />
        <path style="fill:#ffffff;fill-rule:evenodd;stroke:none;stroke-width:0.07018579;stroke-linecap:butt;stroke-linejoin:miter;stroke-miterlimit:4;stroke-dasharray:none;stroke-opacity:1" d="m 72.353288,105.38202 -1.545318,-3.0053 -0.759332,3.55316 -3.494539,0.63768 3.698734,2.31624 c 0,0 -0.525463,1.77333 -0.387705,3.91384 0.137768,2.14053 1.031439,4.27502 1.031439,4.27502 0,0 0.18757,-2.92544 0.602918,-4.50868 0.415343,-1.58321 0.945551,-2.44666 0.945551,-2.44666 0,0 0.479031,0.42375 1.258569,1.25666 0.779532,0.8329 1.532275,2.42874 1.532275,2.42874 0,0 -0.2936,-2.30345 -0.491424,-3.26232 -0.197831,-0.95887 -1.444548,-3.18358 -1.444548,-3.18358 l 2.927181,-1.73661 z" id="path4199" inkscape:connector-curvature="0" sodipodi:nodetypes="cccccsczcscsccc" />
      </g>
    </g>
  </g>
</svg>
