<?xml version="1.0" encoding="UTF-8" standalone="no"?>
<svg xmlns:dc="http://purl.org/dc/elements/1.1/" xmlns:cc="http://creativecommons.org/ns#" xmlns:rdf="http://www.w3.org/1999/02/22-rdf-syntax-ns#" xmlns:svg="http://www.w3.org/2000/svg" xmlns="http://www.w3.org/2000/svg" xmlns:sodipodi="http://sodipodi.sourceforge.net/DTD/sodipodi-0.dtd" xmlns:inkscape="http://www.inkscape.org/namespaces/inkscape" version="1.1" id="Capa_1" x="0px" y="0px" width="450" height="450" viewBox="0 0 45 45" xml:space="preserve" inkscape:version="0.91 r13725" sodipodi:docname="palestras.svg"><metadata id="metadata55"><rdf:RDF><cc:Work rdf:about=""><dc:format>image/svg+xml</dc:format><dc:type rdf:resource="http://purl.org/dc/dcmitype/StillImage" /><dc:title></dc:title></cc:Work></rdf:RDF></metadata><defs id="defs53">
</defs><sodipodi:namedview pagecolor="#ffffff" bordercolor="#666666" borderopacity="1" objecttolerance="10" gridtolerance="10" guidetolerance="10" inkscape:pageopacity="0" inkscape:pageshadow="2" inkscape:window-width="640" inkscape:window-height="480" id="namedview51" showgrid="false" inkscape:zoom="1" inkscape:cx="337" inkscape:cy="258" inkscape:current-layer="Capa_1" fit-margin-top="0" fit-margin-left="0" fit-margin-right="0" fit-margin-bottom="0" />
<path style="opacity:1;fill:#828282;fill-opacity:1;stroke:none;stroke-width:0.1;stroke-miterlimit:4;stroke-dasharray:none;stroke-opacity:1" d="M 22.5,0 C 10.073593,0 0,10.073593 0,22.5 0,34.926407 10.073593,45 22.5,45 34.926407,45 45,34.926407 45,22.5 45,10.073593 34.926407,0 22.5,0 Z m -0.0012,7.934375 c 2.410925,0 4.368555,1.958239 4.368555,4.368555 0,2.413971 -1.95763,5.214453 -4.368555,5.214453 -2.41519,0 -4.368555,-2.799872 -4.368555,-5.214453 0,-2.410316 1.953365,-4.368555 4.368555,-4.368555 z m -0.671094,9.949609 0.441407,0.879493 0.01191,0 -0.922266,7.195898 c -1.400737,0.01584 -2.631071,0.06816 -3.696094,0.149805 l 0,-3.970899 c -0.171818,0.05057 -0.334022,0.09661 -0.480859,0.139258 L 16.75,26.181836 c -1.515891,0.139525 -2.667368,0.332741 -3.534375,0.52832 l 0.656836,-5.920117 c 0.0085,-0.08835 0.05372,-0.151758 0.07383,-0.233398 0.03169,-0.123684 0.05858,-0.250783 0.120117,-0.362891 0.04326,-0.09017 0.112433,-0.159901 0.170313,-0.237891 0.07555,-0.101141 0.145698,-0.201517 0.242578,-0.289257 0.08286,-0.06154 0.175308,-0.104545 0.264258,-0.159375 0.08774,-0.04813 0.162543,-0.11649 0.258203,-0.15 0.156585,-0.05605 3.634562,-1.305691 6.825976,-1.473243 z m 1.34336,0 c 3.193242,0.167552 6.671688,1.417193 6.829492,1.473243 0.09505,0.03168 0.157939,0.09943 0.246289,0.15 0.09383,0.04874 0.190824,0.0946 0.277344,0.164062 0.09261,0.08225 0.158921,0.181074 0.232031,0.277344 0.06276,0.07738 0.132119,0.154289 0.180859,0.246289 0.05727,0.10967 0.08323,0.235877 0.113086,0.354687 0.02254,0.08469 0.06827,0.150918 0.07617,0.239258 l 0.65918,5.920117 c -0.0719,-0.01827 -0.132043,-0.03604 -0.208203,-0.04883 L 31.097854,25.058594 30.966799,24.734766 25.90215,20.769727 c -0.0037,-0.904173 -0.737405,-1.636329 -1.642187,-1.636329 -0.597705,0 -1.099873,0.337981 -1.388672,0.819922 l -0.152344,-1.189843 0.0096,0 0.442578,-0.879493 z m 1.087695,2.002735 c 0.495346,0 0.89375,0.398591 0.89375,0.889062 0,0.111499 -0.02648,0.214229 -0.06426,0.311719 l 5.225196,4.090039 c 0.03168,0.02864 0.05329,0.05678 0.06308,0.09395 l 0.609376,2.036133 c 2.208643,0.414311 2.791796,0.894922 2.791796,0.894922 l 0,3.06543 -22.558984,0 0,-3.066602 c 0,0 1.829566,-1.503125 11.278906,-1.503125 3.806179,0 6.360772,0.24431 8.072852,0.535547 l -0.536524,-1.795703 -5.146875,-4.032813 c -0.160241,0.160241 -0.381561,0.261719 -0.62832,0.261719 -0.490471,0 -0.890039,-0.400739 -0.890039,-0.891211 0,-0.490471 0.398959,-0.889062 0.890039,-0.889062 z m -1.130469,2.068164 c 0.295502,0.284535 0.691178,0.465429 1.130469,0.465429 0.198626,0 0.391552,-0.0341 0.571289,-0.102343 l 2.50957,1.964648 0,1.829102 c -1.131435,-0.08652 -2.364721,-0.135894 -3.698437,-0.152344 l -0.512891,-4.004492 z m 4.980078,2.927539 1.273438,1.003125 0.129687,0.429687 C 29.112446,26.265883 28.684521,26.22378 28.252541,26.18418 L 28.1084,24.882422 Z m -20.8404292,7.074609 30.4640622,0 0,1.285157 -2.257422,3.823437 -25.951562,0 -2.2550782,-3.823437 0,-1.285157 z" id="path4148" inkscape:export-xdpi="90" inkscape:export-ydpi="90" inkscape:connector-curvature="0" />
</svg>