<?xml version="1.0" encoding="UTF-8" standalone="no"?>
<svg xmlns:dc="http://purl.org/dc/elements/1.1/" xmlns:cc="http://creativecommons.org/ns#" xmlns:rdf="http://www.w3.org/1999/02/22-rdf-syntax-ns#" xmlns:svg="http://www.w3.org/2000/svg" xmlns="http://www.w3.org/2000/svg" xmlns:sodipodi="http://sodipodi.sourceforge.net/DTD/sodipodi-0.dtd" xmlns:inkscape="http://www.inkscape.org/namespaces/inkscape" version="1.1" id="Capa_1" x="0px" y="0px" width="450.00003" height="450.00003" viewBox="0 0 450.00001 450.00001" xml:space="preserve" inkscape:version="0.91 r13725" sodipodi:docname="parcerias.svg"><metadata id="metadata41"><rdf:RDF><cc:Work rdf:about=""><dc:format>image/svg+xml</dc:format><dc:type rdf:resource="http://purl.org/dc/dcmitype/StillImage" /><dc:title></dc:title></cc:Work></rdf:RDF></metadata><defs id="defs39">
</defs><sodipodi:namedview pagecolor="#ffffff" bordercolor="#666666" borderopacity="1" objecttolerance="10" gridtolerance="10" guidetolerance="10" inkscape:pageopacity="0" inkscape:pageshadow="2" inkscape:window-width="640" inkscape:window-height="480" id="namedview37" showgrid="false" inkscape:zoom="1" inkscape:cx="274.768" inkscape:cy="225.43387" inkscape:current-layer="Capa_1" fit-margin-top="0" fit-margin-left="0" fit-margin-right="0" fit-margin-bottom="0" />
<path style="opacity:1;fill:#828282;fill-opacity:1;stroke:none;stroke-width:0.1;stroke-miterlimit:4;stroke-dasharray:none;stroke-opacity:1" d="M 225,0 C 100.73593,-1.0000001e-6 -9.9999999e-7,100.73593 0,225 6e-6,349.26407 100.73593,450 225,450 349.26407,449.99999 449.99999,349.26407 450,225 450,100.73593 349.26407,5.9999999e-6 225,0 Z M 96.52075,110.83587 c 22.21116,0 40.26776,18.07861 40.26776,40.30306 0,22.28198 -18.07872,40.3105 -40.26776,40.3105 -22.3174,0 -40.345794,-18.02852 -40.345794,-40.3105 0.02214,-22.22445 18.028394,-40.30306 40.345794,-40.30306 z m 256.94178,0 c 22.33068,0 40.39782,18.07861 40.39782,40.30306 0,22.28198 -18.06714,40.3105 -40.39782,40.3105 -22.18902,0 -40.25104,-18.02852 -40.25104,-40.3105 0,-22.22445 18.06202,-40.30306 40.25104,-40.30306 z m -267.85464,90.04733 21.78299,0 c 8.8942,0 16.97097,3.36226 23.35495,8.62177 0.1948,0.18592 0.43846,0.19165 0.68194,0.32889 7.46423,4.94958 13.0908,11.97199 19.01435,19.34323 12.15261,15.03914 26.14808,31.67986 60.25949,38.19223 -5.59152,5.77305 -8.89571,13.70736 -7.98814,22.28281 0.54897,4.76806 2.52549,8.88975 5.05785,12.55546 -30.17123,-5.04257 -49.79156,-16.58912 -63.68404,-28.74172 l 0,65.69826 -95.149781,0 0,-101.64398 c 0,-20.17022 16.509029,-36.63695 36.670391,-36.63695 z m 256.96779,0 21.84987,0 c 20.12596,0 36.63219,16.46673 36.63695,36.63695 l 0,101.64398 -95.08847,0 0,-65.47342 c -15.27376,13.52503 -37.46092,26.27907 -73.31663,30.26352 -0.68621,0.0487 -1.34283,0.0873 -1.97149,0.0873 -8.80566,0 -16.3639,-6.59672 -17.32902,-15.53963 -1.0581,-9.58485 5.81985,-18.19627 15.40027,-19.29864 42.31939,-4.67953 57.4479,-23.51725 70.79143,-40.02621 5.9634,-7.41552 11.60258,-14.39365 19.07567,-19.34323 0.1815,-0.13724 0.42516,-0.14297 0.68193,-0.32889 6.3043,-5.26392 14.41955,-8.62177 23.26949,-8.62177 z" id="path4148" inkscape:connector-curvature="0" sodipodi:nodetypes="sssssssscsssssssscccccccccsssscccccscccccs" inkscape:export-xdpi="90" inkscape:export-ydpi="90" />
</svg>